<svg xmlns="http://www.w3.org/2000/svg" width="42" height="42" viewBox="0 0 42 42">
  <g fill="none" fill-rule="evenodd" transform="translate(1 1)">
    <rect width="40" height="40" stroke="#D5DAE2" rx="20"/>
    <g fill-rule="nonzero" transform="translate(14 14)">
      <path fill="#FBBB00" d="M2.65945312,7.01109375 L2.24175,8.5704375 L0.715054687,8.60273438 C0.258796875,7.75647656 -3.27515792e-13,6.78825 -3.27515792e-13,5.75934375 C-3.27515792e-13,4.76439844 0.24196875,3.82614844 0.670875,3 L0.671203125,3 L2.03039062,3.2491875 L2.62579687,4.60021875 C2.50117969,4.96352344 2.43325781,5.35352344 2.43325781,5.75934375 C2.43330469,6.19978125 2.51308594,6.62177344 2.65945312,7.01109375 Z"/>
      <g transform="translate(1)">
        <path fill="#518EF8" d="M11.2242891,4.879125 C11.2931953,5.24207812 11.329125,5.61691406 11.329125,6 C11.329125,6.4295625 11.2839609,6.84857812 11.1979219,7.25275781 C10.9058438,8.62814062 10.1426484,9.829125 9.08540625,10.6790156 L9.08507813,10.6786875 L7.37310938,10.5913359 L7.1308125,9.07879687 C7.83234375,8.667375 8.38059375,8.02352344 8.66939063,7.25275781 L5.46103125,7.25275781 L5.46103125,4.879125 L8.71619531,4.879125 L11.2242891,4.879125 L11.2242891,4.879125 Z"/>
        <path fill="#28B446" d="M9.08505469,10.6786875 L9.08538281,10.6790156 C8.05715625,11.5054922 6.75098438,12 5.329125,12 C3.04417969,12 1.05759375,10.7228672 0.0441796875,8.84341406 L1.98857813,7.25177344 C2.49527344,8.60407031 3.79978125,9.56671875 5.329125,9.56671875 C5.98647656,9.56671875 6.60232031,9.38901563 7.13076563,9.07879688 L9.08505469,10.6786875 Z"/>
        <path fill="#F14336" d="M9.15890625,1.3813125 L7.21516406,2.972625 C6.66825,2.63076562 6.02175,2.43328125 5.329125,2.43328125 C3.76516406,2.43328125 2.43625781,3.44008594 1.95494531,4.840875 L0.000328125,3.24065625 L-1.27009514e-13,3.24065625 C0.998578125,1.31538281 3.01021875,-6.52811138e-14 5.329125,-6.52811138e-14 C6.78494531,-6.52811138e-14 8.11978125,0.518578125 9.15890625,1.3813125 Z"/>
      </g>
    </g>
  </g>
</svg>
