<svg xmlns="http://www.w3.org/2000/svg" width="42" height="42" viewBox="0 0 42 42">
  <g fill="none" fill-rule="evenodd" transform="translate(1 1)">
    <rect width="40" height="40" stroke="#D5DAE2" rx="20"/>
    <path fill="#03A9F4" fill-rule="nonzero" d="M26,16.15425 C25.55375,16.35 25.07825,16.47975 24.5825,16.54275 C25.0925,16.23825 25.48175,15.75975 25.66475,15.183 C25.18925,15.4665 24.66425,15.66675 24.10475,15.7785 C23.65325,15.29775 23.00975,15 22.30775,15 C20.94575,15 19.84925,16.1055 19.84925,17.46075 C19.84925,17.65575 19.86575,17.84325 19.90625,18.02175 C17.861,17.922 16.05125,16.94175 14.8355,15.4485 C14.62325,15.81675 14.49875,16.23825 14.49875,16.692 C14.49875,17.544 14.9375,18.29925 15.5915,18.7365 C15.19625,18.729 14.8085,18.61425 14.48,18.4335 C14.48,18.441 14.48,18.45075 14.48,18.4605 C14.48,19.656 15.33275,20.649 16.451,20.87775 C16.25075,20.9325 16.0325,20.95875 15.806,20.95875 C15.6485,20.95875 15.4895,20.94975 15.34025,20.91675 C15.659,21.891 16.5635,22.60725 17.639,22.6305 C16.802,23.28525 15.73925,23.67975 14.58875,23.67975 C14.387,23.67975 14.1935,23.67075 14,23.646 C15.08975,24.34875 16.38125,24.75 17.774,24.75 C22.301,24.75 24.776,21 24.776,17.7495 C24.776,17.64075 24.77225,17.53575 24.767,17.4315 C25.25525,17.085 25.6655,16.65225 26,16.15425 Z"/>
  </g>
</svg>
